<svg width="62" height="66" viewBox="0 0 62 66" fill="none" xmlns="http://www.w3.org/2000/svg">
<g clip-path="url(#clip0_16_41)">
<g opacity="0.9">
<g opacity="0.9">
<path d="M37.24 59.4C35.12 61.66 32.23 63.88 28.61 65.1C29.33 64.57 29.95 63.96 30.54 63.39C31.55 62.48 32.68 61.93 33.88 61.38C35.04 60.82 36.29 60.25 37.24 59.4V59.4Z" fill="#A7A7A7"/>
<path d="M42.05 53.02C42.05 53.02 42.05 53.03 42.05 53.04C40.92 54.82 39.67 56.64 38.12 58.42C38.22 58.29 38.31 58.15 38.38 58.01C39.36 55.96 40.22 54.18 42.04 53.02H42.05Z" fill="#A7A7A7"/>
<path d="M44.51 20.77C47.47 23.78 49.66 27.02 51.88 30.2C51.88 30.8 52.13 31.53 51.96 31.97C52.1 32 51.19 35.26 50.46 36.83C49.42 35.3 48.03 33.81 46.33 32.4C45.75 32.88 44.92 33.97 44.24 33.69C41.84 32.33 40.74 30.46 39.75 28.62C39.89 28.46 40.91 27.26 42 25.72C43.08 24.17 44.2 22.27 44.5 20.78L44.51 20.77Z" fill="#C4C4C4"/>
<path d="M47.35 14.13C48.19 12.32 50.26 10.26 50.99 9.34999C52.3 10.49 53.56 11.65 54.55 12.85C55.45 12.47 56.28 12.29 56.84 11.8C57.03 12.05 57.22 12.29 57.41 12.54C56.54 15.72 55.84 18.96 55.07 22.21C54.23 21.67 49.81 15.94 47.34 14.13H47.35Z" fill="#D1D1D1"/>
<path d="M45.64 19.76C45.69 18.99 45.72 18.28 45.74 17.61C46.21 16.44 46.71 15.27 47.36 14.14C49.82 15.95 51.87 17.99 53.21 20.08C53.28 19.87 54.32 20.03 54.4 19.82C54.68 21.05 54.24 21.68 55.09 22.22C54.38 25.23 53.63 28.26 52.64 31.25C52.21 30.36 52.8 29.86 53.03 29.23C52.11 29.23 51.9 29.66 51.9 30.2C49.67 27.02 47.48 23.78 44.53 20.77L44.76 20.18C45.25 20.16 45.73 20.16 45.66 19.75L45.64 19.76Z" fill="#CACACA"/>
<path d="M37.52 52.75C37.3 50.08 35.87 47.75 34.05 45.56C34.52 45.23 35.53 44.61 35.35 43.66C36.06 42.5 37.96 40.23 37.32 39.38C37 38.96 37.58 40.07 38.35 41.57C39.12 43.07 40.11 45.01 40.73 46.17C41.89 46.99 42.51 48.21 42.94 49.54C42.71 49.75 42.07 49.1 41.81 49.28C41.92 49.34 42.52 50.31 42.52 50.31C42.52 50.31 42.24 50.78 41.85 51.38C41.47 51.98 40.99 52.69 40.66 53.17C39.18 52.84 39.28 54.61 39.47 54.84C39.26 55.12 39.07 55.39 38.84 55.67L38.81 55.69C38.75 55.05 38.64 54.41 38.56 53.8C38.42 53.39 37.53 52.75 37.53 52.75H37.52Z" fill="#B1B1B1"/>
<path d="M44.26 33.68C41.86 32.32 40.76 30.45 39.77 28.61C39.44 29.05 38.59 30.15 38.5 30.27C39.14 30.36 39.85 30.36 39.98 30.75C40.01 31.68 39.91 32.79 39.66 33.38C39.16 34.06 38.04 34.52 37.29 35.11C37.21 35.84 37.15 36.59 37.11 37.32C37.11 37.37 37.84 38.13 38.23 38.32C38.02 38.76 37.69 39.09 37.31 39.39C37.39 39.46 37.79 40.74 38.36 42.21C38.93 43.68 39.73 45.38 40.72 46.18C41.88 47 42.5 48.22 42.93 49.55C42.95 49.53 43.32 48.97 43.77 48.28C44.23 47.6 44.71 46.76 45.05 46.22C44.8 46.14 44.06 46.28 43.91 46.36C43.99 46.21 45.32 45.51 45.72 45.16C46.15 44.48 47.04 42.73 47.05 42.54C47.15 42.33 46.3 42.44 45.64 42.12C46.96 41.68 47.95 41.02 48.73 40.23L49.14 39.48C49.43 39.51 49.63 39.53 49.58 39.64C49.58 39.84 49.56 40.03 49.53 40.21C49.82 39.75 50.92 37.8 51.2 37.28C50.77 37.75 50.24 38.17 49.65 38.53L50.44 36.89V36.82C49.42 35.29 48.03 33.81 46.34 32.4C45.76 32.88 44.93 33.97 44.25 33.69L44.26 33.68Z" fill="#B5B5B5"/>
<path d="M0 51.22C0.33 50.17 0.31 49.07 0.45 47.98C0.58 46.9 0.86 45.86 1.68 45.12C3.19 43.97 5.01 43.72 6.82 43.58C8.65 43.48 10.53 43.38 12.45 43.28C11.72 44.39 11.47 46.04 11.87 47.65C12.26 49.25 13.21 50.82 14.51 51.89C13.71 52.33 13.08 52.1 12.42 51.89C11.74 51.7 11.01 51.54 9.71 52.01C9.43 52.24 9.4 52.79 9.29 53.18C8.46 53.08 7.63 52.61 6.84 52.25C6.05 51.89 5.29 51.63 4.49 52.07C3.52 52.61 2.73 53.63 1.65 54.62L1.29 54.04C1.4 53.16 0.54 52.38 0.01 51.2L0 51.22Z" fill="#8F8F8F"/>
<path d="M7.60003 62.57C6.01003 61.67 4.58003 60.55 3.28003 59.31C3.52003 59.06 3.72003 58.8 3.92003 58.54C5.32003 60 6.99003 61.21 8.84003 62.09C8.43003 62.24 8.02003 62.4 7.60003 62.57V62.57Z" fill="#999999"/>
<path d="M9.28001 53.2C9.39001 52.81 9.42001 52.26 9.70001 52.03C11 51.56 11.73 51.72 12.41 51.91C13.07 52.11 13.71 52.34 14.5 51.91C14.74 52.14 15.01 52.29 15.27 52.49C15.55 52.64 15.8 52.82 16.12 52.97C16.73 53.26 17.42 53.51 18.17 53.7C17.85 53.93 17.52 54.15 17.18 54.36C18 54.57 17.68 57.1 18.73 57.28C17.02 58.34 14.97 58.7 12.77 58.73C10.54 58.78 8.22002 58.55 5.59001 58.94C4.03001 57.75 2.69001 56.3 1.64001 54.64C2.73001 53.65 3.51001 52.63 4.48001 52.09C5.28001 51.64 6.04001 51.91 6.83001 52.27C7.62001 52.63 8.45001 53.1 9.28001 53.2V53.2Z" fill="#999999"/>
<path d="M18.73 57.27C17.69 57.09 18.01 54.57 17.18 54.35C17.52 54.13 17.85 53.91 18.17 53.69C19.85 54.11 22.13 54.34 23.68 54.23C23.79 54.27 23.9 54.3 24 54.32C25.22 54.49 25.96 54.08 27.07 53.85C27.09 55.47 26.76 57.16 25.95 58.76C24.72 58 23.71 57.14 22.73 56.34C21.77 55.53 20.74 54.77 19.77 54.13C20.46 54.58 20.08 56.36 20.45 56.77C21.1 57.84 21.74 59.42 22.2 60.95C22.65 62.47 22.87 63.96 22.34 64.83C21.25 64.87 20.25 64.86 19.25 64.83C18.24 64.79 17.19 64.71 16.11 64.57C13.95 64.28 11.6 63.69 9.29 62.56C9.21 61.98 9.2 61.11 8.99 60.98C7.79 60.43 6.61 59.77 5.56 58.95C8.2 58.56 10.51 58.79 12.74 58.74C14.94 58.71 16.99 58.35 18.7 57.29L18.73 57.27Z" fill="#9F9F9F"/>
<path d="M25.96 58.76C26.77 57.16 27.1 55.47 27.08 53.85C27.36 53.76 27.67 53.74 28.02 53.67C27.85 53.4 27.67 53.14 27.42 52.92C27.59 52.79 27.76 52.69 27.92 52.56C28.22 52.56 29.15 53.3 28.59 51.99C28.82 51.79 29.05 51.56 29.28 51.33C29.82 51.41 30.42 51.56 31.14 51.96L30.35 51.21C30.07 50.47 30.83 50.68 31.07 50.4C30.92 50.27 30.69 50.08 30.53 49.91C32.32 49.2 32.97 46.42 33.19 46.02C33.49 45.88 33.77 45.75 34.03 45.56C35.85 47.74 37.28 50.08 37.5 52.75C37.5 52.75 38.38 53.39 38.53 53.8C38.61 54.41 38.72 55.05 38.78 55.69C37.23 56.23 36.21 57.41 35.4 58.5C34.61 59.59 34.04 60.6 33.98 60.66C33.64 60.95 33.25 61.21 32.87 61.48C31.71 62.13 29.96 62.48 28.24 62.81C26.49 63.18 24.82 63.5 23.37 64.76L22.34 64.82C22.87 63.94 22.65 62.46 22.2 60.94C21.74 59.42 21.11 57.84 20.45 56.76C20.04 56.36 19.09 54.15 19.77 54.12C20.9 54.44 22.32 55.77 23.55 56.86C24.78 57.97 26.03 58.8 25.95 58.75L25.96 58.76Z" fill="#A7A7A7"/>
<path d="M56.22 2.2C56.69 1.58 57.16 0.949998 57.64 0.309998C57.34 1.08 56.69 1.72 57.31 2.43C56.92 2.67 56.76 3.05 56.62 3.44C56.41 3.02 56.29 2.6 56.23 2.19L56.22 2.2Z" fill="#E3E3E3"/>
<path d="M60.53 5.4L60.3 6.01C59.62 5.76 59.09 5.09 59.58 4.82C58.9 4.56 59.43 5.23 59.09 5.1C58.19 4.76 58.24 4.51 58.45 4.28C59.97 4.86 61.37 5.73 61.26 6.04L61.11 6.44C60.89 6.1 60.85 5.67 60.52 5.42L60.53 5.4Z" fill="#E3E3E3"/>
<path d="M56.85 11.8C56.29 12.3 55.46 12.47 54.56 12.85C53.57 11.65 52.31 10.49 51 9.35001C52.34 7.70001 53.56 6.06 54.81 4.38C54.88 4.79 55 5.21 55.22 5.63C55.37 5.24 55.51 4.84 55.9 4.6C56.02 4.74 56.19 4.87 56.41 5.02H56.43C56.21 5.27 56.16 5.51 57.07 5.85C57.41 5.98 56.88 5.31 57.56 5.57C57.07 5.85 57.59 6.51 58.27 6.76L58.5 6.15C58.84 6.4 58.87 6.83 59.09 7.17C58.46 8.94 57.9 10.72 57.41 12.54C57.22 12.3 57.03 12.05 56.84 11.8H56.85Z" fill="#DDDDDD"/>
</g>
</g>
</g>
<defs>
<clipPath id="clip0_16_41">
<rect width="61.27" height="65.1" fill="white"/>
</clipPath>
</defs>
</svg>
