<svg width="184" height="72" viewBox="0 0 184 72" fill="none" xmlns="http://www.w3.org/2000/svg">
<path d="M11.8064 54.5298C9.85747 54.5298 8.1474 54.0659 6.67626 53.1383C5.2145 52.2106 4.07133 50.9129 3.24675 49.2449C2.43153 47.577 2.02393 45.628 2.02393 43.3979C2.02393 41.149 2.43153 39.186 3.24675 37.5087C4.07133 35.8314 5.2145 34.5289 6.67626 33.6013C8.1474 32.6736 9.85747 32.2098 11.8064 32.2098C13.7555 32.2098 15.4608 32.6736 16.9226 33.6013C18.3937 34.5289 19.5369 35.8314 20.3521 37.5087C21.1767 39.186 21.589 41.149 21.589 43.3979C21.589 45.628 21.1767 47.577 20.3521 49.2449C19.5369 50.9129 18.3937 52.2106 16.9226 53.1383C15.4608 54.0659 13.7555 54.5298 11.8064 54.5298ZM11.8064 51.55C13.2869 51.55 14.5051 51.1705 15.4608 50.4115C16.4166 49.6526 17.1241 48.6546 17.5832 47.4177C18.0423 46.1809 18.2719 44.8409 18.2719 43.3979C18.2719 41.9549 18.0423 40.6102 17.5832 39.364C17.1241 38.1178 16.4166 37.1105 15.4608 36.3421C14.5051 35.5737 13.2869 35.1895 11.8064 35.1895C10.3259 35.1895 9.10785 35.5737 8.15208 36.3421C7.19631 37.1105 6.48886 38.1178 6.02972 39.364C5.57057 40.6102 5.341 41.9549 5.341 43.3979C5.341 44.8409 5.57057 46.1809 6.02972 47.4177C6.48886 48.6546 7.19631 49.6526 8.15208 50.4115C9.10785 51.1705 10.3259 51.55 11.8064 51.55ZM29.9695 41.0928V54.08H26.6524V25.2945H29.9695V35.8642H30.2506C30.7566 34.7491 31.5156 33.8637 32.5276 33.2077C33.549 32.5424 34.9077 32.2098 36.6037 32.2098C38.0748 32.2098 39.3632 32.505 40.4689 33.0953C41.5746 33.6762 42.432 34.5711 43.041 35.7799C43.6595 36.9793 43.9687 38.5066 43.9687 40.3619V54.08H40.6516V40.5868C40.6516 38.8721 40.2065 37.5462 39.3164 36.6091C38.4356 35.6627 37.2127 35.1895 35.6479 35.1895C34.561 35.1895 33.5864 35.4191 32.7244 35.8783C31.8717 36.3374 31.197 37.0074 30.7004 37.8882C30.2132 38.769 29.9695 39.8372 29.9695 41.0928ZM56.3902 54.586C55.0221 54.586 53.7805 54.3283 52.6655 53.8129C51.5504 53.2882 50.6649 52.5339 50.009 51.55C49.3531 50.5568 49.0251 49.3574 49.0251 47.9518C49.0251 46.715 49.2688 45.7124 49.756 44.944C50.2433 44.1663 50.8945 43.5572 51.7097 43.1168C52.5249 42.6764 53.4245 42.3484 54.4083 42.1329C55.4016 41.908 56.3995 41.73 57.4021 41.5988C58.714 41.4301 59.7775 41.3036 60.5927 41.2193C61.4173 41.1256 62.017 40.971 62.3918 40.7555C62.776 40.54 62.9681 40.1652 62.9681 39.6311V39.5186C62.9681 38.1318 62.5886 37.0542 61.8296 36.2859C61.08 35.5175 59.9415 35.1333 58.4141 35.1333C56.8306 35.1333 55.589 35.48 54.6895 36.1734C53.7899 36.8668 53.1574 37.6071 52.792 38.3942L49.6436 37.2697C50.2058 35.9579 50.9554 34.9365 51.8924 34.2057C52.8388 33.4654 53.8696 32.9501 54.9846 32.6596C56.109 32.3597 57.2147 32.2098 58.3017 32.2098C58.9951 32.2098 59.7916 32.2941 60.6911 32.4628C61.6 32.6221 62.4761 32.9547 63.3195 33.4607C64.1722 33.9667 64.8796 34.7304 65.4418 35.7518C66.0041 36.7731 66.2852 38.1412 66.2852 39.8559V54.08H62.9681V51.1565H62.7994C62.5745 51.625 62.1997 52.1263 61.675 52.6604C61.1503 53.1945 60.4522 53.649 59.5807 54.0238C58.7093 54.3986 57.6458 54.586 56.3902 54.586ZM56.8962 51.6063C58.208 51.6063 59.3137 51.3486 60.2132 50.8332C61.1221 50.3178 61.8062 49.6526 62.2653 48.8373C62.7338 48.0221 62.9681 47.1647 62.9681 46.2652V43.2292C62.8275 43.3979 62.5183 43.5525 62.0404 43.6931C61.5719 43.8242 61.0284 43.9414 60.41 44.0444C59.8009 44.1381 59.2059 44.2225 58.625 44.2974C58.0534 44.363 57.5896 44.4193 57.2335 44.4661C56.3714 44.5786 55.5656 44.7613 54.816 45.0143C54.0757 45.2579 53.476 45.628 53.0169 46.1246C52.5671 46.6119 52.3422 47.2772 52.3422 48.1205C52.3422 49.2731 52.7685 50.1445 53.6212 50.7348C54.4833 51.3158 55.5749 51.6063 56.8962 51.6063ZM75.6566 25.2945V54.08H72.3395V25.2945H75.6566ZM88.0851 54.586C86.717 54.586 85.4755 54.3283 84.3604 53.8129C83.2453 53.2882 82.3598 52.5339 81.7039 51.55C81.048 50.5568 80.7201 49.3574 80.7201 47.9518C80.7201 46.715 80.9637 45.7124 81.4509 44.944C81.9382 44.1663 82.5894 43.5572 83.4046 43.1168C84.2198 42.6764 85.1194 42.3484 86.1033 42.1329C87.0965 41.908 88.0945 41.73 89.0971 41.5988C90.4089 41.4301 91.4724 41.3036 92.2876 41.2193C93.1122 41.1256 93.7119 40.971 94.0867 40.7555C94.4709 40.54 94.663 40.1652 94.663 39.6311V39.5186C94.663 38.1318 94.2835 37.0542 93.5245 36.2859C92.7749 35.5175 91.6364 35.1333 90.1091 35.1333C88.5255 35.1333 87.2839 35.48 86.3844 36.1734C85.4848 36.8668 84.8523 37.6071 84.4869 38.3942L81.3385 37.2697C81.9007 35.9579 82.6503 34.9365 83.5874 34.2057C84.5338 33.4654 85.5646 32.9501 86.6796 32.6596C87.8041 32.3597 88.9097 32.2098 89.9966 32.2098C90.69 32.2098 91.4865 32.2941 92.386 32.4628C93.2949 32.6221 94.1712 32.9547 95.0145 33.4607C95.8672 33.9667 96.5745 34.7304 97.1368 35.7518C97.699 36.7731 97.9801 38.1412 97.9801 39.8559V54.08H94.663V51.1565H94.4943C94.2695 51.625 93.8946 52.1263 93.3699 52.6604C92.8452 53.1945 92.1471 53.649 91.2757 54.0238C90.4042 54.3986 89.3407 54.586 88.0851 54.586ZM88.5911 51.6063C89.9029 51.6063 91.0086 51.3486 91.9082 50.8332C92.8171 50.3178 93.5011 49.6526 93.9602 48.8373C94.4288 48.0221 94.663 47.1647 94.663 46.2652V43.2292C94.5225 43.3979 94.2132 43.5525 93.7354 43.6931C93.2668 43.8242 92.7234 43.9414 92.1049 44.0444C91.4959 44.1381 90.9008 44.2225 90.3199 44.2974C89.7483 44.363 89.2845 44.4193 88.9284 44.4661C88.0663 44.5786 87.2605 44.7613 86.5109 45.0143C85.7706 45.2579 85.1709 45.628 84.7118 46.1246C84.262 46.6119 84.0371 47.2772 84.0371 48.1205C84.0371 49.2731 84.4635 50.1445 85.3162 50.7348C86.1782 51.3158 87.2699 51.6063 88.5911 51.6063ZM107.352 41.0928V54.08H104.035V32.4909H107.239V35.8642H107.52C108.026 34.7679 108.795 33.8871 109.825 33.2218C110.856 32.5471 112.187 32.2098 113.817 32.2098C115.279 32.2098 116.558 32.5097 117.654 33.1093C118.751 33.6997 119.603 34.5992 120.212 35.808C120.821 37.0074 121.126 38.5254 121.126 40.3619V54.08H117.809V40.5868C117.809 38.8908 117.368 37.5696 116.488 36.6232C115.607 35.6674 114.398 35.1895 112.861 35.1895C111.802 35.1895 110.856 35.4191 110.022 35.8783C109.198 36.3374 108.546 37.0074 108.068 37.8882C107.591 38.769 107.352 39.8372 107.352 41.0928Z" fill="#54206F"/>
<path d="M125.42 55.2091L133.404 33.62H136.777L144.761 55.2091H141.162L135.203 38.0053H134.978L129.019 55.2091H125.42Z" fill="#54206F"/>
<path d="M138.822 25.7417L138.631 27.0332C138.495 27.942 138.288 28.9146 138.009 29.951C137.738 30.9873 137.455 31.9639 137.16 32.8807C136.865 33.7975 136.622 34.5269 136.431 35.069H134.278C134.382 34.5588 134.517 33.8852 134.685 33.0481C134.852 32.2111 135.02 31.2743 135.187 30.238C135.362 29.2096 135.506 28.1573 135.617 27.081L135.761 25.7417H138.822Z" fill="#54206F"/>
<path d="M152.353 42.0128V55H149.036V26.2145H152.353V36.7842H152.634C153.14 35.6691 153.899 34.7837 154.911 34.1277C155.932 33.4624 157.291 33.1298 158.987 33.1298C160.458 33.1298 161.747 33.425 162.852 34.0153C163.958 34.5962 164.815 35.4911 165.425 36.6999C166.043 37.8993 166.352 39.4266 166.352 41.2819V55H163.035V41.5068C163.035 39.7921 162.59 38.4662 161.7 37.5291C160.819 36.5827 159.596 36.1095 158.031 36.1095C156.944 36.1095 155.97 36.3391 155.108 36.7983C154.255 37.2574 153.581 37.9274 153.084 38.8082C152.597 39.689 152.353 40.7572 152.353 42.0128ZM181.81 33.4109V36.222H170.622V33.4109H181.81ZM173.882 28.2385H177.199V48.8156C177.199 49.7527 177.335 50.4554 177.607 50.9239C177.888 51.3831 178.244 51.6923 178.675 51.8516C179.116 52.0015 179.58 52.0765 180.067 52.0765C180.432 52.0765 180.732 52.0577 180.966 52.0203C181.201 51.9734 181.388 51.9359 181.529 51.9078L182.203 54.8876C181.978 54.9719 181.664 55.0562 181.261 55.1406C180.859 55.2343 180.348 55.2811 179.729 55.2811C178.792 55.2811 177.874 55.0796 176.975 54.6767C176.084 54.2738 175.344 53.6601 174.754 52.8355C174.173 52.0109 173.882 50.9708 173.882 49.7152V28.2385Z" fill="#54206F"/>
</svg>
