<svg width="184" height="72" viewBox="0 0 184 72" fill="none" xmlns="http://www.w3.org/2000/svg">
<path d="M11.8065 54.5298C9.85753 54.5298 8.14746 54.0659 6.67632 53.1383C5.21456 52.2106 4.07139 50.9129 3.24681 49.2449C2.43159 47.577 2.02399 45.628 2.02399 43.3979C2.02399 41.149 2.43159 39.186 3.24681 37.5087C4.07139 35.8314 5.21456 34.5289 6.67632 33.6013C8.14746 32.6736 9.85753 32.2098 11.8065 32.2098C13.7556 32.2098 15.4609 32.6736 16.9227 33.6013C18.3938 34.5289 19.537 35.8314 20.3522 37.5087C21.1768 39.186 21.5891 41.149 21.5891 43.3979C21.5891 45.628 21.1768 47.577 20.3522 49.2449C19.537 50.9129 18.3938 52.2106 16.9227 53.1383C15.4609 54.0659 13.7556 54.5298 11.8065 54.5298ZM11.8065 51.55C13.287 51.55 14.5052 51.1705 15.4609 50.4115C16.4167 49.6526 17.1242 48.6546 17.5833 47.4177C18.0424 46.1809 18.272 44.8409 18.272 43.3979C18.272 41.9549 18.0424 40.6102 17.5833 39.364C17.1242 38.1178 16.4167 37.1105 15.4609 36.3421C14.5052 35.5737 13.287 35.1895 11.8065 35.1895C10.326 35.1895 9.10791 35.5737 8.15214 36.3421C7.19637 37.1105 6.48892 38.1178 6.02978 39.364C5.57063 40.6102 5.34106 41.9549 5.34106 43.3979C5.34106 44.8409 5.57063 46.1809 6.02978 47.4177C6.48892 48.6546 7.19637 49.6526 8.15214 50.4115C9.10791 51.1705 10.326 51.55 11.8065 51.55ZM29.9696 41.0928V54.08H26.6525V25.2945H29.9696V35.8642H30.2507C30.7567 34.7491 31.5157 33.8637 32.5277 33.2077C33.5491 32.5424 34.9078 32.2098 36.6038 32.2098C38.0749 32.2098 39.3633 32.505 40.469 33.0953C41.5747 33.6762 42.4321 34.5711 43.0411 35.7799C43.6596 36.9793 43.9688 38.5066 43.9688 40.3619V54.08H40.6517V40.5868C40.6517 38.8721 40.2066 37.5462 39.3165 36.6091C38.4357 35.6627 37.2128 35.1895 35.648 35.1895C34.5611 35.1895 33.5865 35.4191 32.7245 35.8783C31.8718 36.3374 31.1971 37.0074 30.7005 37.8882C30.2133 38.769 29.9696 39.8372 29.9696 41.0928ZM56.3903 54.586C55.0222 54.586 53.7806 54.3283 52.6656 53.8129C51.5505 53.2882 50.665 52.5339 50.0091 51.55C49.3532 50.5568 49.0252 49.3574 49.0252 47.9518C49.0252 46.715 49.2689 45.7124 49.7561 44.944C50.2434 44.1663 50.8946 43.5572 51.7098 43.1168C52.525 42.6764 53.4246 42.3484 54.4084 42.1329C55.4017 41.908 56.3996 41.73 57.4022 41.5988C58.7141 41.4301 59.7776 41.3036 60.5928 41.2193C61.4174 41.1256 62.0171 40.971 62.3919 40.7555C62.7761 40.54 62.9682 40.1652 62.9682 39.6311V39.5186C62.9682 38.1318 62.5887 37.0542 61.8297 36.2859C61.0801 35.5175 59.9416 35.1333 58.4142 35.1333C56.8307 35.1333 55.5891 35.48 54.6896 36.1734C53.79 36.8668 53.1575 37.6071 52.7921 38.3942L49.6437 37.2697C50.2059 35.9579 50.9555 34.9365 51.8925 34.2057C52.8389 33.4654 53.8697 32.9501 54.9847 32.6596C56.1091 32.3597 57.2148 32.2098 58.3018 32.2098C58.9952 32.2098 59.7917 32.2941 60.6912 32.4628C61.6001 32.6221 62.4762 32.9547 63.3196 33.4607C64.1723 33.9667 64.8797 34.7304 65.4419 35.7518C66.0042 36.7731 66.2853 38.1412 66.2853 39.8559V54.08H62.9682V51.1565H62.7995C62.5746 51.625 62.1998 52.1263 61.6751 52.6604C61.1504 53.1945 60.4523 53.649 59.5808 54.0238C58.7094 54.3986 57.6459 54.586 56.3903 54.586ZM56.8963 51.6063C58.2081 51.6063 59.3138 51.3486 60.2133 50.8332C61.1222 50.3178 61.8063 49.6526 62.2654 48.8373C62.7339 48.0221 62.9682 47.1647 62.9682 46.2652V43.2292C62.8276 43.3979 62.5184 43.5525 62.0405 43.6931C61.572 43.8242 61.0285 43.9414 60.4101 44.0444C59.801 44.1381 59.206 44.2225 58.6251 44.2974C58.0535 44.363 57.5897 44.4193 57.2336 44.4661C56.3715 44.5786 55.5657 44.7613 54.8161 45.0143C54.0758 45.2579 53.4761 45.628 53.017 46.1246C52.5672 46.6119 52.3423 47.2772 52.3423 48.1205C52.3423 49.2731 52.7686 50.1445 53.6213 50.7348C54.4834 51.3158 55.575 51.6063 56.8963 51.6063ZM75.6567 25.2945V54.08H72.3396V25.2945H75.6567ZM88.0852 54.586C86.7171 54.586 85.4756 54.3283 84.3605 53.8129C83.2454 53.2882 82.3599 52.5339 81.704 51.55C81.0481 50.5568 80.7202 49.3574 80.7202 47.9518C80.7202 46.715 80.9638 45.7124 81.451 44.944C81.9383 44.1663 82.5895 43.5572 83.4047 43.1168C84.2199 42.6764 85.1195 42.3484 86.1034 42.1329C87.0966 41.908 88.0946 41.73 89.0972 41.5988C90.409 41.4301 91.4725 41.3036 92.2877 41.2193C93.1123 41.1256 93.712 40.971 94.0868 40.7555C94.471 40.54 94.6631 40.1652 94.6631 39.6311V39.5186C94.6631 38.1318 94.2836 37.0542 93.5246 36.2859C92.775 35.5175 91.6365 35.1333 90.1092 35.1333C88.5256 35.1333 87.284 35.48 86.3845 36.1734C85.4849 36.8668 84.8524 37.6071 84.487 38.3942L81.3386 37.2697C81.9008 35.9579 82.6504 34.9365 83.5875 34.2057C84.5339 33.4654 85.5646 32.9501 86.6796 32.6596C87.8041 32.3597 88.9098 32.2098 89.9967 32.2098C90.6901 32.2098 91.4866 32.2941 92.3861 32.4628C93.295 32.6221 94.1712 32.9547 95.0145 33.4607C95.8672 33.9667 96.5746 34.7304 97.1369 35.7518C97.6991 36.7731 97.9802 38.1412 97.9802 39.8559V54.08H94.6631V51.1565H94.4944C94.2696 51.625 93.8947 52.1263 93.37 52.6604C92.8453 53.1945 92.1472 53.649 91.2758 54.0238C90.4043 54.3986 89.3408 54.586 88.0852 54.586ZM88.5912 51.6063C89.903 51.6063 91.0087 51.3486 91.9083 50.8332C92.8172 50.3178 93.5012 49.6526 93.9603 48.8373C94.4289 48.0221 94.6631 47.1647 94.6631 46.2652V43.2292C94.5226 43.3979 94.2133 43.5525 93.7355 43.6931C93.2669 43.8242 92.7235 43.9414 92.105 44.0444C91.496 44.1381 90.9009 44.2225 90.32 44.2974C89.7484 44.363 89.2846 44.4193 88.9285 44.4661C88.0664 44.5786 87.2606 44.7613 86.511 45.0143C85.7707 45.2579 85.171 45.628 84.7119 46.1246C84.2621 46.6119 84.0372 47.2772 84.0372 48.1205C84.0372 49.2731 84.4636 50.1445 85.3163 50.7348C86.1783 51.3158 87.27 51.6063 88.5912 51.6063ZM107.352 41.0928V54.08H104.035V32.4909H107.239V35.8642H107.52C108.026 34.7679 108.795 33.8871 109.825 33.2218C110.856 32.5471 112.187 32.2098 113.817 32.2098C115.279 32.2098 116.558 32.5097 117.654 33.1093C118.751 33.6997 119.603 34.5992 120.212 35.808C120.821 37.0074 121.126 38.5254 121.126 40.3619V54.08H117.809V40.5868C117.809 38.8908 117.368 37.5696 116.488 36.6232C115.607 35.6674 114.398 35.1895 112.861 35.1895C111.802 35.1895 110.856 35.4191 110.022 35.8783C109.198 36.3374 108.546 37.0074 108.068 37.8882C107.591 38.769 107.352 39.8372 107.352 41.0928Z" fill="#4B5563"/>
<path d="M125.42 55.2091L133.404 33.62H136.777L144.761 55.2091H141.162L135.203 38.0053H134.978L129.019 55.2091H125.42Z" fill="#4B5563"/>
<path d="M138.822 25.7417L138.631 27.0332C138.495 27.942 138.288 28.9146 138.009 29.951C137.738 30.9873 137.455 31.9639 137.16 32.8807C136.865 33.7975 136.622 34.5269 136.431 35.069H134.278C134.382 34.5588 134.517 33.8852 134.685 33.0481C134.852 32.2111 135.02 31.2743 135.187 30.238C135.362 29.2096 135.506 28.1573 135.617 27.081L135.761 25.7417H138.822Z" fill="#4B5563"/>
<path d="M152.353 42.0128V55H149.036V26.2145H152.353V36.7842H152.634C153.14 35.6691 153.899 34.7837 154.911 34.1277C155.932 33.4624 157.291 33.1298 158.987 33.1298C160.458 33.1298 161.747 33.425 162.852 34.0153C163.958 34.5962 164.815 35.4911 165.425 36.6999C166.043 37.8993 166.352 39.4266 166.352 41.2819V55H163.035V41.5068C163.035 39.7921 162.59 38.4662 161.7 37.5291C160.819 36.5827 159.596 36.1095 158.031 36.1095C156.944 36.1095 155.97 36.3391 155.108 36.7983C154.255 37.2574 153.581 37.9274 153.084 38.8082C152.597 39.689 152.353 40.7572 152.353 42.0128ZM181.81 33.4109V36.222H170.622V33.4109H181.81ZM173.882 28.2385H177.199V48.8156C177.199 49.7527 177.335 50.4554 177.607 50.9239C177.888 51.3831 178.244 51.6923 178.675 51.8516C179.116 52.0015 179.58 52.0765 180.067 52.0765C180.432 52.0765 180.732 52.0577 180.966 52.0203C181.201 51.9734 181.388 51.9359 181.529 51.9078L182.203 54.8876C181.978 54.9719 181.664 55.0562 181.261 55.1406C180.859 55.2343 180.348 55.2811 179.729 55.2811C178.792 55.2811 177.874 55.0796 176.975 54.6767C176.084 54.2738 175.344 53.6601 174.754 52.8355C174.173 52.0109 173.882 50.9708 173.882 49.7152V28.2385Z" fill="#4B5563"/>
</svg>
